<svg
		aria-hidden="true"
		class="hero__blob"
		viewBox="25 15 140 157"
		xmlns="http://www.w3.org/2000/svg">
	<path
			d="M34.7,-64.3C44,-54.6,50.2,-43.6,51.2,-32.6C52.2,-21.7,48.1,-10.8,49.6,0.8C51,12.5,58,25,54.1,31C50.2,36.9,35.4,36.2,24.5,40.6C13.7,44.9,6.8,54.3,-3.2,59.9C-13.3,65.4,-26.5,67.2,-39.9,64.3C-53.4,61.4,-66.9,53.9,-71.2,42.5C-75.6,31,-70.6,15.5,-70,0.3C-69.5,-14.8,-73.2,-29.6,-69.2,-41.6C-65.1,-53.6,-53.3,-62.7,-40.5,-70.3C-27.6,-78,-13.8,-84.3,-0.6,-83.3C12.6,-82.2,25.3,-74,34.7,-64.3Z"
			fill="currentColor"
			transform="translate(100 100)" />
</svg>
