<svg viewBox="29 30 154 145" xmlns="http://www.w3.org/2000/svg">
	<path
			d="M38.8,-61.9C53,-58.9,69,-54,76.2,-43.4C83.3,-32.8,81.5,-16.4,80.7,-0.4C79.9,15.5,80.2,31,73.1,41.6C65.9,52.3,51.4,58.1,38,63.4C24.6,68.6,12.3,73.4,-0.4,74C-13.1,74.7,-26.2,71.3,-38.8,65.6C-51.4,59.9,-63.5,51.8,-67.9,40.5C-72.3,29.1,-69,14.6,-67.5,0.9C-66,-12.9,-66.4,-25.7,-62.3,-37.5C-58.2,-49.4,-49.6,-60.2,-38.5,-64.9C-27.4,-69.6,-13.7,-68.2,-0.7,-67C12.3,-65.8,24.6,-64.8,38.8,-61.9Z"
			fill="#bcd2ee"
			transform="translate(100 100)" />
</svg>
