<svg xmlns="http://www.w3.org/2000/svg" viewBox="0 0 90 97" width="40" height="40">
	<g transform="translate(0.000000,97.000000) scale(0.100000,-0.100000)" fill="#d8315b" stroke="none">
		<path d="M0 485 l0 -485 450 0 450 0 0 485 0 485 -450 0 -450 0 0 -485z m536 296 c71 -32 84 -116 23 -150 -33 -18 -74 -8 -96 25 -23 35 -8 74 36 95 27 13 30 17 17 22 -33 13 -76 7 -95 -12 -22 -22 -41 -101 -41 -172 l0 -50 30 22 c20 15 43 22 73 22 110 -2 173 -87 148 -200 -35 -154 -217 -205 -331 -91 -47 47 -70 111 -70 193 0 143 72 260 186 300 52 19 71 18 120 -4z m34 -621 c0 -19 -7 -20 -140 -20 -133 0 -140 1 -140 20 0 19 7 20 140 20 133 0 140 -1 140 -20z"/>
		<path d="M409 541 c-28 -29 -29 -32 -29 -131 0 -133 22 -178 79 -163 30 8 44 71 39 185 -3 77 -8 101 -22 117 -25 27 -32 27 -67 -8z"/>
	</g>
</svg>
