<svg version="1.0" xmlns="http://www.w3.org/2000/svg" viewBox="0 0 84.000000 84.000000" width="40" height="40">
	<g transform="translate(0.000000,84.000000) scale(0.100000,-0.100000)" fill="#d8315b" stroke="none">
		<path d="M346 761 c-61 -32 -77 -36 -145 -36 -64 0 -83 4 -125 27 -26 15 -53 25 -59 21 -15 -9 0 -207 23 -299 11 -44 34 -107 50 -141 64 -129 278 -314 348 -298 41 9 191 100 235 143 100 96 129 190 143 449 7 154 3 168 -44 135 -85 -59 -214 -61 -296 -4 -23 15 -45 30 -51 33 -5 3 -41 -10 -79 -30z m215 -91 c35 0 29 -18 -9 -24 -107 -16 -113 -18 -106 -35 17 -41 10 -56 -28 -59 -33 -3 -38 0 -38 18 0 12 5 30 10 41 10 17 7 19 -29 19 -22 0 -43 5 -46 10 -8 12 -125 13 -125 1 0 -5 7 -14 15 -21 24 -20 18 -54 -15 -78 -48 -36 -39 -113 16 -126 20 -5 24 -10 15 -19 -8 -8 -14 -8 -23 1 -22 22 -28 13 -28 -38 0 -50 6 -60 27 -39 14 14 33 3 33 -17 0 -8 7 -29 16 -45 22 -44 83 -69 169 -69 108 0 185 45 185 107 0 15 10 27 35 39 58 27 61 103 5 122 -16 6 -30 16 -30 21 0 14 27 14 35 1 13 -20 25 2 25 46 0 32 -4 44 -14 44 -8 0 -18 -5 -21 -10 -4 -6 -11 -8 -16 -5 -13 9 -11 48 5 70 7 11 14 24 14 29 1 6 20 15 44 21 24 6 54 15 67 19 l24 8 -6 -123 c-7 -140 -25 -220 -64 -286 -47 -80 -148 -164 -240 -199 l-45 -17 -55 29 c-33 17 -84 60 -128 107 -111 117 -158 229 -172 406 l-6 84 24 -7 c106 -34 184 -29 283 17 l49 22 64 -32 c36 -18 74 -33 84 -33z m-241 -91 c0 -10 -5 -21 -11 -25 -18 -11 -32 13 -25 41 6 22 9 25 21 15 8 -7 15 -21 15 -31z m230 6 c0 -28 -17 -42 -33 -26 -7 7 -7 18 1 36 14 30 32 24 32 -10z m-235 -95 c3 -6 -1 -13 -10 -16 -19 -8 -30 0 -20 15 8 14 22 14 30 1z m143 -7 c-4 -20 -64 -31 -80 -15 -18 18 2 32 43 32 33 0 40 -3 37 -17z m92 2 c0 -8 -9 -15 -20 -15 -20 0 -26 11 -13 23 12 13 33 7 33 -8z m-320 1 c0 -3 -4 -8 -10 -11 -5 -3 -10 -1 -10 4 0 6 5 11 10 11 6 0 10 -2 10 -4z m82 -88 c-12 -12 -35 -1 -27 12 3 5 13 6 21 3 10 -4 12 -9 6 -15z m146 5 c2 -9 -9 -13 -37 -13 -30 0 -41 4 -41 16 0 11 9 14 37 12 20 -2 38 -9 41 -15z m92 3 c0 -8 -4 -17 -8 -20 -13 -8 -35 11 -28 23 10 16 36 14 36 -3z m70 -6 c0 -5 -2 -10 -4 -10 -3 0 -8 5 -11 10 -3 6 -1 10 4 10 6 0 11 -4 11 -10z m-310 -79 c0 -6 -4 -13 -10 -16 -5 -3 -10 1 -10 9 0 9 5 16 10 16 6 0 10 -4 10 -9z m137 -13 c-2 -19 4 -24 31 -26 41 -4 41 -17 1 -31 -41 -14 -87 -14 -128 0 -40 14 -40 27 2 31 26 2 32 7 30 26 -2 19 2 22 32 22 30 0 34 -3 32 -22z m101 10 c-6 -18 -25 -20 -31 -3 -5 10 0 15 14 15 12 0 19 -5 17 -12z"/>
	</g>
</svg>
