<svg width="24" height="24" viewBox="0 0 24 24" fill="none" xmlns="http://www.w3.org/2000/svg">
<path d="M9.88571 2.25671C8.14285 3.171 7.68571 3.28528 5.74285 3.28528C3.91428 3.28528 3.37142 3.171 2.17142 2.51386C1.42857 2.08528 0.657139 1.79957 0.485711 1.91386C0.0571391 2.171 0.485711 7.82814 1.14285 10.4567C1.45714 11.7139 2.11428 13.5139 2.57142 14.4853C4.4 18.171 10.5143 23.4567 12.5143 22.9996C13.6857 22.7424 17.9714 20.1424 19.2286 18.9139C22.0857 16.171 22.9143 13.4853 23.3143 6.08528C23.5143 1.68528 23.4 1.28528 22.0571 2.22814C19.6286 3.91386 15.9429 3.971 13.6 2.34243C12.9429 1.91386 12.3143 1.48528 12.1429 1.39957C12 1.31386 10.9714 1.68528 9.88571 2.25671ZM16.0286 4.85671C17.0286 4.85671 16.8571 5.371 15.7714 5.54243C12.7143 5.99957 12.5429 6.05671 12.7429 6.54243C13.2286 7.71386 13.0286 8.14243 11.9429 8.22814C11 8.31386 10.8571 8.22814 10.8571 7.71386C10.8571 7.371 11 6.85671 11.1429 6.54243C11.4286 6.05671 11.3429 5.99957 10.3143 5.99957C9.68571 5.99957 9.08571 5.85671 9 5.71386C8.77143 5.371 5.42857 5.34243 5.42857 5.68528C5.42857 5.82814 5.62857 6.08528 5.85714 6.28528C6.54285 6.85671 6.37142 7.82814 5.42857 8.51386C4.05714 9.54243 4.31428 11.7424 5.88571 12.1139C6.45714 12.2567 6.57142 12.3996 6.31428 12.6567C6.08571 12.8853 5.91428 12.8853 5.65714 12.6281C5.02857 11.9996 4.85714 12.2567 4.85714 13.7139C4.85714 15.1424 5.02857 15.4281 5.62857 14.8281C6.02857 14.4281 6.57142 14.7424 6.57142 15.3139C6.57142 15.5424 6.77142 16.1424 7.02857 16.5996C7.65714 17.8567 9.4 18.571 11.8571 18.571C14.9429 18.571 17.1429 17.2853 17.1429 15.5139C17.1429 15.0853 17.4286 14.7424 18.1429 14.3996C19.8 13.6281 19.8857 11.4567 18.2857 10.9139C17.8286 10.7424 17.4286 10.4567 17.4286 10.3139C17.4286 9.91386 18.2 9.91386 18.4286 10.2853C18.8 10.8567 19.1429 10.2281 19.1429 8.971C19.1429 8.05671 19.0286 7.71386 18.7429 7.71386C18.5143 7.71386 18.2286 7.85671 18.1429 7.99957C18.0286 8.171 17.8286 8.22814 17.6857 8.14243C17.3143 7.88528 17.3714 6.771 17.8286 6.14243C18.0286 5.82814 18.2286 5.45671 18.2286 5.31386C18.2571 5.14243 18.8 4.88528 19.4857 4.71386C20.1714 4.54243 21.0286 4.28528 21.4 4.171L22.0857 3.94243L21.9143 7.45671C21.7143 11.4567 21.2 13.7424 20.0857 15.6281C18.7429 17.9139 15.8571 20.3139 13.2286 21.3139L11.9429 21.7996L10.3714 20.971C9.42857 20.4853 7.97142 19.2567 6.71428 17.9139C3.54285 14.571 2.2 11.371 1.8 6.31386L1.62857 3.91386L2.31428 4.11386C5.34285 5.08528 7.57143 4.94243 10.4 3.62814L11.8 2.99957L13.6286 3.91386C14.6571 4.42814 15.7429 4.85671 16.0286 4.85671ZM9.14285 7.45671C9.14285 7.74243 9 8.05671 8.82857 8.171C8.31428 8.48528 7.91428 7.79957 8.11428 6.99957C8.28571 6.371 8.37143 6.28528 8.71428 6.571C8.94285 6.771 9.14285 7.171 9.14285 7.45671ZM15.7143 7.28528C15.7143 8.08528 15.2286 8.48528 14.7714 8.02814C14.5714 7.82814 14.5714 7.51386 14.8 6.99957C15.2 6.14243 15.7143 6.31386 15.7143 7.28528ZM9 9.99957C9.08571 10.171 8.97143 10.371 8.71428 10.4567C8.17143 10.6853 7.85714 10.4567 8.14285 10.0281C8.37143 9.62814 8.77143 9.62814 9 9.99957ZM13.0857 10.1996C12.9714 10.771 11.2571 11.0853 10.8 10.6281C10.2857 10.1139 10.8571 9.71386 12.0286 9.71386C12.9714 9.71386 13.1714 9.79957 13.0857 10.1996ZM15.7143 10.1424C15.7143 10.371 15.4571 10.571 15.1429 10.571C14.5714 10.571 14.4 10.2567 14.7714 9.91386C15.1143 9.54243 15.7143 9.71386 15.7143 10.1424ZM6.57142 10.1139C6.57142 10.1996 6.45714 10.3424 6.28571 10.4281C6.14285 10.5139 6 10.4567 6 10.3139C6 10.1424 6.14285 9.99957 6.28571 9.99957C6.45714 9.99957 6.57142 10.0567 6.57142 10.1139ZM8.91428 12.6281C8.57143 12.971 7.91428 12.6567 8.14285 12.2853C8.22857 12.1424 8.51428 12.1139 8.74285 12.1996C9.02857 12.3139 9.08571 12.4567 8.91428 12.6281ZM13.0857 12.4853C13.1429 12.7424 12.8286 12.8567 12.0286 12.8567C11.1714 12.8567 10.8571 12.7424 10.8571 12.3996C10.8571 12.0853 11.1143 11.9996 11.9143 12.0567C12.4857 12.1139 13 12.3139 13.0857 12.4853ZM15.7143 12.3996C15.7143 12.6281 15.6 12.8853 15.4857 12.971C15.1143 13.1996 14.4857 12.6567 14.6857 12.3139C14.9714 11.8567 15.7143 11.9139 15.7143 12.3996ZM17.7143 12.571C17.7143 12.7139 17.6571 12.8567 17.6 12.8567C17.5143 12.8567 17.3714 12.7139 17.2857 12.571C17.2 12.3996 17.2571 12.2853 17.4 12.2853C17.5714 12.2853 17.7143 12.3996 17.7143 12.571ZM8.85714 14.8281C8.85714 14.9996 8.74285 15.1996 8.57143 15.2853C8.42857 15.371 8.28571 15.2567 8.28571 15.0281C8.28571 14.771 8.42857 14.571 8.57143 14.571C8.74285 14.571 8.85714 14.6853 8.85714 14.8281ZM12.7714 15.1996C12.7143 15.7424 12.8857 15.8853 13.6571 15.9424C14.8286 16.0567 14.8286 16.4281 13.6857 16.8281C12.5143 17.2281 11.2 17.2281 10.0286 16.8281C8.88571 16.4281 8.88571 16.0567 10.0857 15.9424C10.8286 15.8853 11 15.7424 10.9429 15.1996C10.8857 14.6567 11 14.571 11.8571 14.571C12.7143 14.571 12.8286 14.6567 12.7714 15.1996ZM15.6571 14.9139C15.4857 15.4281 14.9429 15.4853 14.7714 14.9996C14.6286 14.7139 14.7714 14.571 15.1714 14.571C15.5143 14.571 15.7143 14.7139 15.6571 14.9139Z" fill="#0E2B76"/>
</svg>
