<svg version="1.0" xmlns="http://www.w3.org/2000/svg" viewBox="0 0 776 776" width="40" height="40">
	<g transform="translate(0.000000,776.000000) scale(0.100000,-0.100000)" fill="#d8315b" stroke="none">
		<path d="M3465 7734 c-617 -46 -1098 -127 -1625 -274 -321 -89 -683 -217 -898 -316 l-73 -34 4 -1387 c3 -1350 4 -1394 26 -1588 75 -684 219 -1254 455 -1803 20 -46 72 -155 115 -241 465 -928 1188 -1603 2111 -1973 261 -105 300 -113 400 -79 219 74 555 230 770 358 282 168 497 339 756 597 298 299 508 584 718 974 355 659 584 1509 635 2362 5 80 9 738 10 1462 l1 1318 -77 36 c-275 127 -732 279 -1137 379 -353 86 -749 152 -1146 191 -155 15 -906 28 -1045 18z m-655 -416 c120 -73 207 -101 465 -148 331 -60 484 -117 574 -214 l24 -25 20 26 c26 33 111 87 179 114 92 37 177 58 394 99 245 46 344 76 435 131 73 44 100 48 129 19 16 -16 20 -33 20 -80 l0 -60 48 3 47 2 3 -77 3 -77 52 -3 52 -3 3 -595 c2 -582 2 -596 -18 -628 -39 -63 -72 -70 -370 -75 -361 -7 -566 -39 -755 -118 -60 -25 -73 -34 -83 -62 -6 -18 -26 -41 -43 -51 -41 -24 -137 -32 -194 -16 -45 13 -95 57 -95 84 0 17 -93 58 -200 89 -182 53 -411 77 -708 77 -173 -1 -187 0 -231 22 -85 42 -81 12 -81 670 0 317 3 583 6 592 4 12 20 16 55 16 l48 0 3 78 3 77 48 -2 47 -3 0 60 c0 95 45 124 120 78z m-954 -457 c35 -25 46 -29 71 -22 16 5 57 12 91 16 l62 7 16 -37 c8 -20 18 -64 21 -98 6 -58 9 -64 47 -92 60 -45 90 -105 90 -180 0 -33 -6 -71 -13 -83 -11 -21 -9 -32 23 -95 54 -111 54 -111 1 -147 -25 -17 -62 -37 -82 -44 -32 -11 -40 -21 -55 -60 -35 -99 -111 -156 -211 -160 -49 -2 -55 -6 -115 -64 -35 -34 -72 -62 -82 -62 -10 0 -47 28 -82 62 -59 59 -65 63 -114 64 -56 2 -104 22 -147 63 -32 29 -67 90 -67 118 -1 12 -26 30 -83 58 -100 49 -103 59 -52 162 32 65 35 78 26 105 -6 17 -11 56 -11 86 0 74 30 136 85 174 40 29 43 33 53 101 5 40 15 85 21 101 11 28 12 28 77 21 36 -4 79 -11 96 -16 26 -7 36 -4 59 15 73 61 194 64 275 7z m4242 27 c18 -5 45 -20 61 -34 28 -23 29 -23 97 -9 103 22 123 20 135 -12 6 -16 16 -60 21 -100 10 -68 13 -72 53 -101 75 -52 105 -159 74 -262 -10 -33 -8 -41 13 -76 13 -21 32 -59 41 -84 l18 -45 -28 -22 c-15 -13 -56 -35 -90 -50 -44 -19 -63 -33 -63 -46 0 -27 -35 -89 -67 -118 -43 -41 -91 -61 -147 -63 -49 -1 -55 -5 -114 -64 -35 -34 -72 -62 -83 -62 -11 0 -49 30 -85 66 -45 44 -71 63 -82 59 -28 -10 -118 15 -159 45 -36 27 -64 70 -91 140 -6 16 -23 30 -48 39 -22 8 -58 27 -82 43 -49 34 -49 35 4 143 l34 70 -16 50 c-12 41 -13 60 -4 102 13 59 55 123 98 149 26 15 30 24 36 82 4 35 13 80 21 98 16 39 32 42 135 20 64 -14 65 -14 104 12 68 47 129 56 214 30z m-2121 -1775 c71 -71 126 -154 138 -212 6 -29 -10 -121 -21 -121 -3 0 -21 11 -42 24 -68 42 -197 104 -234 111 -38 7 -68 -12 -68 -44 0 -21 43 -63 90 -86 81 -41 170 -134 170 -178 0 -12 -29 -84 -64 -162 -94 -206 -110 -266 -110 -405 -1 -126 13 -183 66 -279 16 -29 28 -54 26 -56 -2 -1 -63 -5 -137 -8 l-134 -5 -76 78 c-114 116 -173 139 -696 278 -82 22 -175 50 -206 61 -117 44 -191 115 -226 217 -18 54 -41 69 -71 48 -27 -19 -30 -80 -7 -144 8 -23 15 -45 15 -47 0 -9 -67 10 -140 40 -126 52 -240 187 -284 336 -28 94 -15 322 19 351 16 13 293 82 505 124 435 88 806 128 1321 144 l97 3 69 -68z m598 27 c105 -11 239 -27 300 -37 103 -16 111 -18 152 -56 60 -55 57 -68 -14 -61 -176 18 -347 -58 -298 -132 14 -22 19 -23 147 -22 146 1 214 -14 295 -65 149 -94 186 -341 80 -541 -88 -167 -414 -399 -697 -496 -80 -28 -113 -34 -210 -37 l-115 -5 -58 47 c-129 102 -173 246 -132 422 8 35 47 134 86 220 173 381 173 381 173 463 1 65 -4 84 -32 142 -18 37 -55 91 -82 121 -28 30 -50 58 -50 62 0 11 230 -2 455 -25z m813 -130 c320 -71 640 -163 911 -261 91 -33 181 -65 198 -71 18 -6 35 -19 38 -28 7 -23 -12 -376 -30 -555 -61 -588 -210 -1174 -422 -1655 -379 -859 -955 -1484 -1728 -1875 -178 -90 -433 -195 -473 -195 -14 0 -89 25 -166 56 -823 331 -1450 893 -1886 1694 -368 674 -598 1573 -623 2437 l-3 103 91 35 c50 19 96 35 102 35 5 0 18 -21 28 -46 48 -127 221 -316 390 -429 172 -114 370 -204 595 -270 63 -18 187 -54 275 -80 645 -188 655 -191 713 -240 74 -62 92 -170 51 -296 -32 -93 -38 -98 -66 -47 -34 61 -88 114 -163 162 -85 56 -124 73 -217 97 -143 37 -445 35 -516 -3 -18 -9 -17 -12 11 -41 17 -18 51 -78 75 -133 81 -187 171 -286 332 -367 102 -51 187 -70 296 -65 54 2 99 1 99 -2 0 -3 -12 -25 -26 -50 -54 -93 -194 -380 -243 -497 -148 -356 -248 -745 -267 -1048 l-7 -102 84 -70 c184 -153 353 -269 554 -381 118 -65 331 -165 431 -201 l61 -23 110 45 c374 154 705 361 1007 631 62 56 84 81 75 86 -8 4 -66 10 -129 14 -159 9 -288 31 -395 67 -147 49 -240 122 -293 229 -34 70 -43 211 -18 306 21 80 21 120 0 128 -21 8 -108 -32 -194 -89 -258 -171 -483 -504 -621 -915 -27 -80 -49 -153 -49 -162 0 -9 -5 -20 -11 -24 -25 -15 12 265 58 441 104 399 318 706 647 927 233 155 448 221 670 203 145 -12 187 -10 223 9 42 21 58 47 77 119 10 39 27 72 50 98 75 82 125 226 111 317 -13 85 -50 106 -350 201 -141 45 -179 69 -210 136 -17 35 -48 74 -87 109 -39 36 -56 57 -47 60 232 70 406 160 613 315 110 83 196 172 260 268 43 66 90 113 113 113 18 0 106 68 124 97 23 34 25 86 3 104 -12 10 -26 10 -67 1 -29 -7 -58 -13 -65 -15 -9 -1 -14 20 -17 74 -10 166 -69 317 -180 465 -35 46 -60 84 -54 84 5 0 71 -14 147 -30z m-3579 -197 c-11 -70 -11 -231 2 -297 6 -32 8 -60 6 -63 -9 -8 -112 83 -159 142 -50 61 -117 180 -107 189 8 8 253 83 260 80 3 -2 2 -25 -2 -51z"/>
		<path d="M2762 6588 l3 -673 35 -17 c41 -20 108 -31 310 -53 363 -39 560 -88 658 -161 l32 -25 0 624 0 624 -22 21 c-67 61 -250 122 -508 167 -259 46 -371 80 -473 142 l-37 23 2 -672z"/>
		<path d="M4968 7254 c-12 -18 -146 -79 -223 -102 -39 -12 -161 -37 -272 -57 -265 -46 -442 -105 -510 -168 l-23 -20 0 -623 0 -623 43 28 c120 79 269 113 732 166 151 17 236 37 254 59 8 10 10 193 9 682 -2 368 -6 664 -10 658z"/>
		<path d="M1715 6834 c-5 -1 -22 -5 -37 -8 -35 -8 -87 -52 -100 -85 -21 -55 -12 -110 28 -168 28 -40 42 -53 58 -51 14 2 22 11 24 28 7 60 12 71 35 68 18 -2 23 -11 25 -43 3 -39 15 -55 39 -55 20 0 82 95 89 138 8 50 -23 121 -63 148 -27 17 -80 33 -98 28z"/>
		<path d="M1396 6782 c-2 -9 -7 -35 -11 -58 l-6 -41 58 -6 c31 -3 58 -5 59 -4 1 1 4 26 7 54 7 58 11 53 -70 67 -24 4 -33 1 -37 -12z"/>
		<path d="M1981 6789 c-24 -5 -45 -10 -46 -11 -2 -2 2 -26 8 -55 l11 -52 50 6 c28 3 53 7 55 9 8 7 -14 107 -24 110 -5 1 -30 -2 -54 -7z"/>
		<path d="M1336 6587 c-98 -56 -101 -201 -7 -264 41 -28 93 -30 168 -6 43 13 53 21 53 38 0 16 -10 26 -40 38 -28 11 -40 21 -40 36 0 28 15 34 56 21 30 -10 39 -10 51 3 14 14 11 21 -23 70 -61 87 -138 110 -218 64z"/>
		<path d="M1961 6593 c-19 -10 -51 -41 -72 -68 -33 -46 -35 -53 -23 -70 13 -17 18 -18 50 -6 31 11 38 11 51 -2 22 -22 10 -45 -29 -55 -25 -6 -34 -14 -36 -34 -3 -22 3 -27 47 -42 92 -30 153 -17 203 43 38 44 44 104 16 159 -13 25 -35 55
		-50 65 -38 28 -114 33 -157 10z"/>
		<path d="M1649 6457 c-48 -32 -68 -91 -48 -143 32 -84 137 -112 203 -53 60 52 61 126 1 186 -27 27 -40 33 -78 33 -29 0 -55 -8 -78 -23z"/>
		<path d="M1226 6238 c-25 -51 -25 -52 -6 -65 11 -8 35 -20 55 -29 28 -11 35 -12 35 -1 0 7 9 30 20 52 24 46 23 45 7 45 -7 0 -29 11 -49 25 l-36 25 -26 -52z"/>
		<path d="M2170 6275 c-7 -8 -27 -20 -45 -27 -33 -11 -33 -12 -20 -37 8 -14 19 -38 25 -54 l10 -27 50 25 c27 14 50 28 50 30 0 10 -43 95 -50 100 -4 3 -13 -2 -20 -10z"/>
		<path d="M1500 6245 c-99 -37 -143 -109 -120 -194 13 -48 78 -111 118 -112 131 -5 196 58 190 184 -3 55 -5 62 -25 65 -15 2 -29 -7 -44 -27 -25 -34 -40 -38 -59 -16 -10 12 -8 21 10 49 17 28 19 39 10 56 -6 11 -12 20 -13 19 -1 0 -31 -11 -67 -24z"/>
		<path d="M1861 6248 c-10 -16 -8 -24 9 -47 43 -61 7 -97 -42 -42 -46 52 -62 40 -66 -50 -3 -70 -1 -79 24 -108 52 -62 136 -81 203 -46 60 30 93 116 73 184 -16 50 -56 85 -128 108 -60 20 -61 20 -73 1z"/>
		<path d="M1695 5937 c-11 -13 -29 -28 -40 -35 -19 -10 -18 -13 20 -51 21 -23 42 -41 45 -41 8 0 51 39 69 62 10 14 7 22 -26 52 -21 20 -40 35 -43 36 -3 0 -14 -11 -25 -23z"/>
		<path d="M5940 6811 c-49 -26 -83 -93 -76 -150 6 -45 67 -141 89 -141 24 0 36 16 39 55 3 35 6 40 28 40 22 0 26 -5 30 -45 4 -36 9 -46 26 -48 26 -4 90 85 99 138 8 46 -28 117 -74 147 -43 29 -112 30 -161 4z"/>
		<path d="M5697 6793 c-3 -5 -9 -33 -13 -61 l-7 -52 34 0 c19 0 43 -3 54 -6 17 -4 22 2 32 47 14 59 9 69 -39 69 -14 0 -33 3 -41 6 -8 3 -17 1 -20 -3z"/>
		<path d="M6283 6791 c-24 -4 -45 -10 -48 -13 -3 -3 0 -28 7 -57 10 -46 14 -52 32 -47 12 3 36 6 55 6 l33 0 -7 46 c-8 54 -15 75 -24 73 -3 -1 -25 -5 -48 -8z"/>
		<path d="M5642 6593 c-60 -29 -100 -109 -86 -170 9 -39 49 -90 84 -108 62 -32 194 -5 203 41 4 21 -1 26 -34 35 -42 13 -57 35 -37 56 11 10 21 10 52 1 34 -11 40 -10 52 7 12 16 10 24 -20 64 -64 88 -136 113 -214 74z"/>
		<path d="M6250 6588 c-19 -13 -49 -44 -67 -69 -28 -40 -31 -48 -19 -64 11 -16 17 -16 51 -5 34 11 40 11 51 -5 18 -25 8 -41 -37 -54 -30 -9 -39 -17 -39 -35 0 -18 9 -25 53 -39 71 -22 125 -21 165 3 102 62 95 223 -11 274 -50 23 -107 20 -147 -6z"/>
		<path d="M5946 6459 c-56 -44 -70 -110 -36 -166 30 -50 62 -66 120 -61 161 16 152 248 -9 248 -34 0 -56 -6 -75 -21z"/>
		<path d="M5532 6256 c-38 -64 -37 -73 7 -96 55 -28 63 -26 85 23 11 23 22 45 24 50 2 4 -2 7 -10 7 -7 0 -30 11 -50 25 l-36 25 -20 -34z"/>
		<path d="M6450 6265 c-19 -14 -40 -25 -47 -25 -15 0 -17 -12 -3 -26 5 -5 15 -26 22 -46 l13 -38 53 25 c28 13 52 27 52 30 0 7 -49 105 -53 105 -1 -1 -18 -12 -37 -25z"/>
		<path d="M5802 6245 c-77 -28 -105 -53 -121 -106 -21 -69 6 -143 64 -179 30 -18 47 -22 96 -18 53 4 64 9 97 41 36 36 37 40 41 122 3 81 2 85 -18 85 -12 0 -34 -14 -50 -32 -48 -54 -83 -18 -40 43 17 25 18 32 7 48 -13 18 -15 18 -76 -4z"/>
		<path d="M6159 6249 c-8 -16 -5 -27 11 -55 18 -28 20 -37 10 -49 -19 -22 -34 -18 -59 16 -15 20 -29 29 -44 27 -19 -3 -22 -10 -25 -61 -5 -101 52 -181 133 -188 69 -5 87 1 130 44 55 54 66 105 37 170 -23 52 -45 69 -125 96 -57 20 -57 20 -68 0z"/>
		<path d="M5977 5925 c-41 -39 -40 -50 15 -94 l30 -24 40 40 40 41 -38 36 c-22 19 -41 35 -44 35 -3 0 -22 -15 -43 -34z"/>
	</g>
</svg>
