<?xml version="1.0" standalone="no"?>
<!DOCTYPE svg PUBLIC "-//W3C//DTD SVG 20010904//EN"
 "http://www.w3.org/TR/2001/REC-SVG-20010904/DTD/svg10.dtd">
<svg version="1.0" xmlns="http://www.w3.org/2000/svg"
 width="497.000000pt" height="497.000000pt" viewBox="0 0 497.000000 497.000000"
 preserveAspectRatio="xMidYMid meet">
<metadata>
Created by potrace 1.14, written by Peter Selinger 2001-2017
</metadata>
<g transform="translate(0.000000,497.000000) scale(0.100000,-0.100000)"
fill="#000000" stroke="none">
<path d="M2309 4966 c-2 -2 -33 -7 -69 -10 -117 -12 -143 -15 -195 -26 -28 -6
-65 -13 -81 -16 -16 -3 -47 -10 -69 -16 -22 -6 -44 -11 -50 -12 -5 -2 -30 -8
-55 -15 -25 -7 -45 -12 -45 -12 0 1 -18 -5 -39 -14 -22 -9 -47 -18 -55 -20 -9
-2 -29 -9 -46 -16 -16 -7 -32 -13 -35 -14 -3 -1 -18 -8 -35 -15 -16 -7 -32
-14 -35 -15 -3 -1 -22 -9 -43 -18 -20 -9 -41 -17 -45 -18 -4 -1 -24 -13 -44
-26 -21 -13 -38 -20 -38 -17 0 4 -8 0 -17 -8 -10 -9 -28 -19 -40 -22 -13 -4
-29 -13 -36 -19 -19 -18 -50 -37 -69 -43 -10 -4 -18 -10 -18 -15 0 -5 -5 -9
-10 -9 -12 0 -73 -41 -78 -52 -2 -5 -8 -8 -14 -8 -5 0 -15 -6 -23 -12 -7 -7
-25 -22 -40 -32 -14 -11 -35 -27 -45 -35 -10 -9 -34 -27 -51 -41 -37 -28 -250
-239 -289 -285 -137 -164 -252 -338 -342 -521 -38 -77 -70 -147 -72 -155 -1
-8 -10 -31 -19 -52 -36 -84 -111 -344 -122 -422 -1 -11 -5 -36 -9 -55 -13 -75
-17 -98 -24 -170 -9 -91 -9 -400 0 -491 9 -94 36 -251 60 -344 27 -110 88
-297 102 -314 6 -8 10 -15 8 -15 -2 -1 2 -14 9 -31 7 -16 13 -32 14 -35 1 -3
10 -23 20 -45 10 -22 17 -43 17 -47 -1 -5 3 -8 8 -8 6 0 10 -9 10 -20 0 -11 5
-20 11 -20 5 0 7 -4 4 -10 -3 -5 -1 -10 5 -10 6 0 9 -4 6 -9 -4 -5 -3 -11 1
-13 5 -1 21 -29 38 -60 16 -32 33 -58 37 -58 4 0 8 -4 8 -10 0 -12 94 -156
123 -190 12 -14 32 -39 44 -56 49 -69 239 -267 334 -348 59 -51 160 -126 169
-126 4 0 10 -4 12 -8 4 -11 110 -83 168 -113 25 -13 47 -27 50 -31 6 -8 256
-129 274 -132 6 -1 28 -10 49 -19 57 -25 222 -76 312 -97 213 -51 344 -65 585
-64 241 1 324 9 515 50 87 19 94 20 175 43 25 7 46 13 47 12 4 -1 80 27 120
45 17 8 36 14 42 14 6 0 26 9 46 20 19 11 37 20 40 20 3 0 22 7 43 16 20 9 44
18 52 20 8 2 16 8 18 14 2 5 8 8 13 4 5 -3 9 0 9 6 0 6 5 8 10 5 6 -3 10 -1
10 5 0 6 4 9 9 6 5 -4 11 -3 13 1 1 5 29 21 60 38 32 16 58 32 58 36 0 4 11
10 25 13 14 4 25 11 25 16 0 6 7 10 15 10 8 0 15 5 15 10 0 6 6 10 13 10 8 0
22 9 32 20 10 11 22 20 27 20 5 0 16 6 23 12 16 15 27 24 70 56 79 61 117 95
220 198 243 244 400 472 533 779 72 168 148 423 167 568 2 16 6 40 9 55 20
108 29 482 13 607 -4 33 -10 80 -13 105 -6 53 -45 247 -54 270 -1 3 -3 10 -4
15 -1 6 -8 30 -16 55 -7 25 -14 50 -16 55 -3 16 -35 107 -47 135 -6 14 -11 27
-12 30 -5 14 -27 65 -47 108 -12 26 -21 50 -20 55 1 4 -3 7 -9 7 -5 0 -7 5 -4
10 3 6 1 10 -6 10 -7 0 -10 3 -6 6 3 3 -8 27 -24 54 -16 26 -29 50 -29 53 0
10 -104 172 -112 175 -5 2 -8 10 -8 18 0 8 -4 14 -10 14 -5 0 -10 5 -10 11 0
6 -6 16 -12 24 -7 7 -22 25 -32 40 -20 27 -34 44 -83 104 -46 55 -244 253
-302 301 -86 71 -139 110 -150 110 -5 0 -11 4 -13 8 -4 13 -123 92 -137 92 -6
0 -11 4 -11 9 0 9 -313 170 -340 175 -8 1 -32 10 -53 19 -125 54 -412 128
-557 143 -36 3 -69 9 -74 11 -9 6 -431 14 -437 9z"/>
</g>
</svg>
