<svg viewBox="0 0 24 24" fill="none" xmlns="http://www.w3.org/2000/svg">
<path d="M23.5453 8.27396C23.7281 8.12057 24 8.26406 24 8.50651V18.625C24 19.9362 22.9922 21 21.75 21H2.25C1.00781 21 0 19.9362 0 18.625V8.51146C0 8.26406 0.267187 8.12552 0.454687 8.27891C1.50469 9.13984 2.89688 10.2333 7.67813 13.8997C8.66719 14.6617 10.3359 16.2648 12 16.2549C13.6734 16.2698 15.375 14.632 16.3266 13.8997C21.1078 10.2333 22.4953 9.1349 23.5453 8.27396ZM12 14.6667C13.0875 14.6865 14.6531 13.2219 15.4406 12.6182C21.6609 7.85339 22.1344 7.43776 23.5687 6.25026C23.8406 6.0276 24 5.68125 24 5.3151V4.375C24 3.0638 22.9922 2 21.75 2H2.25C1.00781 2 0 3.0638 0 4.375V5.3151C0 5.68125 0.159375 6.02266 0.43125 6.25026C1.86563 7.43281 2.33906 7.85339 8.55938 12.6182C9.34688 13.2219 10.9125 14.6865 12 14.6667Z" fill="currentColor"/>
</svg>
