<svg width="22" height="22" viewBox="0 0 22 22" fill="none" xmlns="http://www.w3.org/2000/svg">
<path d="M18.5625 13.75H17.1875C17.0052 13.75 16.8303 13.8224 16.7014 13.9514C16.5724 14.0803 16.5 14.2552 16.5 14.4375V19.25H2.75V5.5H8.9375C9.11984 5.5 9.2947 5.42757 9.42364 5.29864C9.55257 5.1697 9.625 4.99484 9.625 4.8125V3.4375C9.625 3.25516 9.55257 3.0803 9.42364 2.95136C9.2947 2.82243 9.11984 2.75 8.9375 2.75H2.0625C1.51549 2.75 0.990886 2.9673 0.604092 3.35409C0.217298 3.74089 0 4.26549 0 4.8125L0 19.9375C0 20.4845 0.217298 21.0091 0.604092 21.3959C0.990886 21.7827 1.51549 22 2.0625 22H17.1875C17.7345 22 18.2591 21.7827 18.6459 21.3959C19.0327 21.0091 19.25 20.4845 19.25 19.9375V14.4375C19.25 14.2552 19.1776 14.0803 19.0486 13.9514C18.9197 13.8224 18.7448 13.75 18.5625 13.75ZM20.9688 0H15.4688C14.5505 0 14.0916 1.11332 14.7383 1.76172L16.2736 3.29699L5.80078 13.7659C5.70464 13.8617 5.62836 13.9755 5.57631 14.1009C5.52426 14.2262 5.49747 14.3606 5.49747 14.4964C5.49747 14.6321 5.52426 14.7665 5.57631 14.8918C5.62836 15.0172 5.70464 15.131 5.80078 15.2268L6.77488 16.1992C6.87069 16.2954 6.98453 16.3716 7.10988 16.4237C7.23523 16.4757 7.36962 16.5025 7.50535 16.5025C7.64108 16.5025 7.77547 16.4757 7.90082 16.4237C8.02617 16.3716 8.14001 16.2954 8.23582 16.1992L18.7034 5.72859L20.2383 7.26172C20.8828 7.90625 22 7.45508 22 6.53125V1.03125C22 0.757745 21.8914 0.495443 21.698 0.302046C21.5046 0.108649 21.2423 0 20.9688 0Z" fill="currentColor"/>
</svg>
