<svg width="96" height="96" viewBox="0 0 96 96" fill="none" xmlns="http://www.w3.org/2000/svg">
<g clip-path="url(#clip0_665_993)">
<path d="M33.7372 93.2569C37.7487 94.8683 42.103 95.8283 46.6972 95.9997C52.903 96.2055 58.7658 94.9369 64.0458 92.5026C57.7372 90.034 52.0115 86.3997 47.143 81.874C43.9622 86.9528 39.293 90.9276 33.7715 93.2569H33.7372Z" fill="#FF9100"/>
<path d="M47.1087 81.874C35.9658 71.5883 29.2115 56.674 29.7944 40.3197C29.7944 39.8055 29.8287 39.2569 29.8629 38.7426C24.9173 37.4807 19.7271 37.5398 14.8115 38.914C11.8287 44.1255 10.0458 50.0912 9.80579 56.5026C9.22294 73.0283 19.2344 87.4626 33.7372 93.2912C39.2743 90.9873 43.9504 87.0066 47.1087 81.9083V81.874Z" fill="#FFC400"/>
<path d="M47.1086 81.8747C49.7814 77.5951 51.2829 72.6885 51.4629 67.6461C51.9429 53.8633 42.6858 42.0347 29.8629 38.709C29.8629 39.2233 29.7943 39.7718 29.7943 40.2861C29.5075 48.0521 30.9068 55.788 33.8957 62.9615C36.8847 70.135 41.3924 76.5757 47.1086 81.8404V81.8747Z" fill="#FF9100"/>
<path d="M50.0229 0C42.7201 5.82857 36.9601 13.5429 33.4629 22.4229C31.4187 27.6298 30.2039 33.1251 29.8629 38.7086C36.22 40.3518 41.8258 44.1155 45.7535 49.3773C49.6811 54.6391 51.6953 61.0838 51.4629 67.6457C51.3041 72.6916 49.8009 77.6036 47.1086 81.8743C52.0357 86.4339 57.7673 90.0379 64.0115 92.5029C76.6972 86.64 85.6801 74.0571 86.1943 59.1429C86.5372 49.4743 82.8343 40.8686 77.5886 33.6C72.0343 25.92 50.0229 0.0342857 50.0229 0.0342857V0Z" fill="#DD2C00"/>
</g>
<defs>
<clipPath id="clip0_665_993">
<rect width="96" height="96" fill="white"/>
</clipPath>
</defs>
</svg>
